<svg viewBox="0 0 140 48" xmlns="http://www.w3.org/2000/svg">
  <!-- Text "escotel" -->
  <text x="0" y="32" font-family="Inter, -apple-system, sans-serif" font-size="28" font-weight="500" fill="#888888" letter-spacing="-0.02em">
    escotel
  </text>
  
  <!-- Red circle with chat bubble -->
  <g>
    <!-- Red circle background -->
    <circle cx="112" cy="24" r="18" fill="#DC2626"/>
    
    <!-- Chat bubble icon (white) -->
    <g transform="translate(112, 24)">
      <!-- Main bubble -->
      <path d="M -8 -7 Q -10 -7 -10 -5 L -10 4 Q -10 6 -8 6 L 2 6 L 5 9 L 2 6 L -8 6 Q -10 6 -10 4 L -10 -5 Q -10 -7 -8 -7 L 8 -7 Q 10 -7 10 -5 L 10 4 Q 10 6 8 6 L 5 6 L 3 8 L 5 6 L 8 6 Q 10 6 10 4 L 10 -5 Q 10 -7 8 -7 Z" fill="white"/>
    </g>
  </g>
</svg>